<svg width="300" height="302" viewBox="0 0 300 302" fill="none" xmlns="http://www.w3.org/2000/svg">
<circle cx="150" cy="150" r="150" fill="#f7f7f7"/>
<path d="M18.775 274.121C28.7461 278.904 39.2306 282.54 50.0312 284.952L50.0697 284.961L50.108 284.97C79.9821 292.055 110.55 295.729 141.237 295.922L141.278 295.923L141.32 295.924C144.016 295.978 146.723 295.978 149.5 295.978H149.531L149.561 295.978C182.991 296.319 216.342 292.622 248.903 284.967L248.936 284.96L248.969 284.952C259.769 282.54 270.254 278.904 280.225 274.121C274.699 271.101 269.169 268.042 263.715 264.897L263.605 264.833L263.497 264.764C255.483 259.676 246.647 256.053 237.393 254.059C230.933 252.677 224.738 250.25 219.047 246.876L218.864 246.767L218.689 246.646C208.307 239.447 198.561 231.359 189.558 222.472L187.773 220.71V218.202V197.8C185.857 200.415 184.016 203.086 182.252 205.811C177.27 213.954 168.361 218.846 158.831 218.617H140.092C134.693 218.617 130.192 217.434 126.289 215.107C122.482 212.839 119.636 209.712 117.197 206.5C115.484 204.245 113.975 202.006 112.446 199.737C112.043 199.138 111.638 198.537 111.227 197.933V218.202V220.71L109.442 222.472C100.439 231.359 90.6926 239.447 80.311 246.646L80.1359 246.767L79.9527 246.876C74.2627 250.25 68.0684 252.676 61.6087 254.059L18.775 274.121ZM18.775 274.121C24.3011 271.101 29.8308 268.042 35.2845 264.897L35.3953 264.833L35.5032 264.764C43.5168 259.676 52.3533 256.053 61.6076 254.059L18.775 274.121Z" fill="#DEAF6C" stroke="#0A0A0A" stroke-width="12"/>
<path d="M291.087 273.208C284.028 277.491 276.532 280.993 268.729 283.652C262.055 286.084 255.257 288.154 248.363 289.851C228.563 294.673 157.639 298.425 131.049 298.425C152.798 291.611 175.798 279.496 190.714 267.991C205.63 256.486 224.2 247.092 224.677 243.104C228.511 244.986 232.564 246.375 236.742 247.237C246.691 249.38 256.189 253.275 264.8 258.742C272.547 263.21 280.461 267.511 288.375 271.811C289.205 272.258 290.091 272.705 291.087 273.208Z" fill="#0A0A0A"/>
<path d="M9.41733 274.18C16.4758 278.464 23.9719 281.965 31.7752 284.625C38.4491 287.057 45.2474 289.126 52.1408 290.824C71.9409 295.646 155.337 303.309 165.713 294.801C143.964 287.987 124.706 280.469 109.79 268.964C94.8738 257.458 76.3045 248.065 75.8269 244.077C71.9928 245.959 67.9396 247.347 63.7625 248.21C53.8131 250.353 44.3154 254.248 35.7045 259.715C27.9567 264.183 20.0429 268.484 12.1291 272.784C11.299 273.231 10.4135 273.678 9.41733 274.18Z" fill="#0A0A0A"/>
<path d="M77.3298 111.481C79.3611 111.314 81.3533 111.945 82.8923 113.198C83.5185 120.533 84.5021 125.662 85.3426 130.045C85.3635 130.153 85.3842 130.262 85.4049 130.369C86.3007 135.043 86.9837 138.749 86.9837 143.634C86.9837 146.074 86.8726 148.478 86.7568 150.934L86.7497 151.083C86.723 151.649 86.6962 152.218 86.6707 152.789C79.8474 148.543 75.2832 141.382 74.4745 133.298C74.463 133.182 74.4457 133.068 74.4229 132.954L74.4227 132.953L74.4216 132.948L74.4146 132.913C74.4082 132.88 74.398 132.827 74.3847 132.757C74.358 132.616 74.3186 132.403 74.2703 132.127C74.1736 131.576 74.0415 130.775 73.9038 129.798C73.6271 127.835 73.3343 125.206 73.2528 122.482C73.1703 119.724 73.3114 117.049 73.8138 114.923C74.2969 112.878 74.9652 111.946 75.4718 111.573C75.8242 111.45 76.2037 111.411 76.5782 111.461C76.8273 111.494 77.0793 111.501 77.3298 111.481Z" fill="#DEAF6C" stroke="#0A0A0A" stroke-width="7" stroke-linejoin="round"/>
<path d="M220.373 111.481C218.342 111.314 216.35 111.945 214.811 113.198C214.184 120.533 213.201 125.662 212.36 130.045C212.339 130.153 212.319 130.262 212.298 130.369C211.402 135.043 210.719 138.749 210.719 143.634C210.719 146.074 210.83 148.478 210.946 150.934L210.953 151.083C210.98 151.649 211.007 152.218 211.032 152.789C217.856 148.543 222.42 141.382 223.228 133.298C223.24 133.182 223.257 133.068 223.28 132.954L223.28 132.953L223.281 132.948L223.288 132.913C223.295 132.88 223.305 132.827 223.318 132.757C223.345 132.616 223.384 132.403 223.433 132.127C223.529 131.576 223.661 130.775 223.799 129.798C224.076 127.835 224.369 125.206 224.45 122.482C224.533 119.724 224.392 117.049 223.889 114.923C223.406 112.878 222.738 111.946 222.231 111.573C221.879 111.45 221.499 111.411 221.125 111.461C220.876 111.494 220.624 111.501 220.373 111.481Z" fill="#DEAF6C" stroke="#0A0A0A" stroke-width="7" stroke-linejoin="round"/>
<path d="M87.9387 82.0285L87.9404 81.9961L87.9418 81.9638C88.0745 78.8239 88.6337 75.7047 89.6106 72.6715C98.3261 66.1931 105.509 62.8829 111.964 61.3952C118.695 59.8439 125.019 60.1836 132.043 61.4657C135.794 62.1502 139.825 63.142 144.22 64.2234C155.986 67.1179 170.358 70.654 188.927 70.6547C191.226 70.6598 193.525 70.5544 195.812 70.3388C199.928 70.0102 203.976 69.1892 207.847 67.8983C210.058 72.346 211.28 77.1093 211.456 81.935L211.457 81.9818L211.46 82.0285C212.648 103.539 211.464 115.147 210.05 123.153C209.661 125.358 209.215 127.431 208.778 129.462C207.706 134.446 206.688 139.181 206.688 145.006C206.688 151.587 203.487 161.676 199.895 170.719C198.151 175.109 196.404 179.041 195.091 181.878C194.436 183.294 193.891 184.432 193.513 185.212C193.323 185.602 193.175 185.902 193.076 186.102C193.062 186.13 193.049 186.157 193.037 186.181C193.018 186.21 192.997 186.243 192.974 186.279C192.844 186.48 192.645 186.786 192.383 187.179C191.856 187.966 191.076 189.105 190.077 190.477C188.074 193.23 185.226 196.879 181.829 200.507C178.415 204.154 174.559 207.657 170.558 210.219C166.524 212.803 162.693 214.205 159.227 214.205H140.171C136.705 214.205 132.875 212.803 128.841 210.219C124.839 207.657 120.984 204.154 117.57 200.507C114.173 196.879 111.325 193.23 109.321 190.477C108.323 189.105 107.542 187.966 107.016 187.179C106.753 186.786 106.554 186.48 106.424 186.279C106.401 186.243 106.38 186.21 106.361 186.181C106.349 186.157 106.336 186.13 106.322 186.102C106.223 185.902 106.075 185.602 105.886 185.212C105.507 184.432 104.962 183.294 104.307 181.878C102.995 179.042 101.247 175.109 99.5033 170.719C95.9118 161.676 92.7103 151.587 92.7103 145.006C92.7103 139.158 91.6904 134.416 90.6176 129.428C90.1816 127.401 89.7369 125.333 89.3483 123.134C87.9347 115.134 86.7507 103.539 87.9387 82.0285Z" fill="#DEAF6C" stroke="#0A0A0A" stroke-width="10"/>
<path d="M185.313 70.4595C136.519 70.4595 121.803 47.1351 83.9409 74.1096C81.9887 66.9982 81.0503 59.7242 81.1448 52.4345C81.1448 28.1547 125.494 15.0001 155.013 15.0001C203.626 15.0001 185.231 29.786 223.691 25.3969C223.691 25.3969 234.657 70.4595 185.313 70.4595Z" fill="#0A0A0A"/>
</svg>
